<svg width="34" height="34" fill="none" xmlns="http://www.w3.org/2000/svg"><rect width="34" height="34" rx="4" fill="#5FA551"/><path fill-rule="evenodd" clip-rule="evenodd" d="M13.419 22.462c1.123.663 2.194 1.06 3.612 1.061 3.65 0 6.622-2.956 6.624-6.59.001-3.641-2.957-6.593-6.619-6.594-3.652 0-6.623 2.956-6.624 6.589 0 1.483.436 2.594 1.17 3.756l-.67 2.432 2.507-.654zm7.246-3.874c.2.1.332.149.382.231.05.083.05.48-.116.943-.166.463-.962.885-1.344.942-.343.05-.777.072-1.254-.079a11.54 11.54 0 01-1.135-.417c-1.997-.858-3.3-2.86-3.4-2.991l-.002-.003c-.108-.144-.81-1.079-.81-2.047 0-.975.514-1.454.696-1.652a.73.73 0 01.53-.248l.383.006c.121.006.286-.046.448.34.165.397.563 1.372.613 1.471.05.1.083.215.017.347-.067.133-.1.216-.2.33-.1.116-.21.259-.3.348-.099.098-.203.206-.087.404.116.198.516.847 1.107 1.372.76.676 1.402.884 1.601.984.2.099.316.082.432-.05.116-.132.498-.578.63-.776.133-.199.266-.166.448-.1.183.066 1.162.546 1.36.645z" fill="#fff"/><path fill-rule="evenodd" clip-rule="evenodd" d="M10.13 20.891L9 25l4.223-1.103a8.001 8.001 0 003.81.966c4.391 0 7.965-3.557 7.967-7.928a7.867 7.867 0 00-2.331-5.61A7.935 7.935 0 0017.033 9c-4.39 0-7.964 3.557-7.966 7.927a7.89 7.89 0 001.063 3.964zm6.9 2.632c-1.417 0-2.488-.398-3.611-1.061l-2.507.654.67-2.432c-.734-1.162-1.17-2.273-1.17-3.756.001-3.633 2.972-6.59 6.624-6.59 3.662.002 6.62 2.954 6.619 6.595-.002 3.634-2.975 6.59-6.624 6.59z" fill="#fff"/></svg>