<svg width="34" height="34" viewBox="0 0 34 34" fill="none" xmlns="http://www.w3.org/2000/svg">
<rect width="34" height="34" rx="4" fill="#5FA551"/>
<path fill-rule="evenodd" clip-rule="evenodd" d="M13.419 22.462C14.5417 23.1253 15.6134 23.5227 17.0308 23.5233C20.6801 23.5233 23.6529 20.5673 23.6549 16.9333C23.6563 13.292 20.6976 10.34 17.0362 10.3387C13.3842 10.3387 10.4134 13.2947 10.412 16.928C10.4114 18.4113 10.8481 19.522 11.5816 20.684L10.9124 23.116L13.419 22.462ZM20.6647 18.588C20.8644 18.6873 20.997 18.7367 21.0466 18.8193C21.0968 18.902 21.0968 19.2987 20.9307 19.762C20.7645 20.2247 19.9694 20.6473 19.587 20.704C19.244 20.7547 18.8099 20.776 18.333 20.6253C18.0443 20.534 17.6732 20.412 17.1983 20.208C15.2015 19.35 13.8979 17.3487 13.7981 17.2167L13.7958 17.2135C13.6882 17.0704 12.9856 16.1353 12.9856 15.1673C12.9856 14.192 13.5 13.7133 13.6822 13.5147C13.8644 13.316 14.0801 13.2667 14.2128 13.2667L14.5946 13.2733C14.7165 13.2793 14.8806 13.2273 15.0427 13.6133C15.2082 14.01 15.606 14.9853 15.6563 15.084C15.7065 15.1833 15.7393 15.2993 15.673 15.4313C15.606 15.564 15.5732 15.6467 15.4721 15.7613C15.3723 15.8773 15.2631 16.02 15.1733 16.1087C15.0742 16.2073 14.9704 16.3147 15.0862 16.5127C15.2021 16.7113 15.602 17.36 16.1935 17.8853C16.9538 18.5607 17.5955 18.7693 17.7944 18.8687C17.9934 18.968 18.1099 18.9513 18.2258 18.8193C18.3417 18.6873 18.7235 18.2407 18.8561 18.0427C18.9894 17.844 19.1221 17.8773 19.3043 17.9433C19.4871 18.0093 20.4658 18.4887 20.6647 18.588Z" fill="white"/>
<path fill-rule="evenodd" clip-rule="evenodd" d="M10.13 20.8913L9 25L13.2234 23.8973C14.3869 24.5293 15.7005 24.862 17.0335 24.8627C21.4243 24.8627 24.998 21.306 25 16.9347C25.0007 14.816 24.1727 12.824 22.6689 11.3253C21.1644 9.82667 19.1643 9.00067 17.0335 9C12.6426 9 9.06899 12.5567 9.06698 16.9273C9.06631 18.3253 9.43272 19.6887 10.13 20.8913ZM17.0308 23.5233C15.6134 23.5227 14.5417 23.1253 13.419 22.462L10.9124 23.116L11.5816 20.684C10.8481 19.522 10.4114 18.4113 10.412 16.928C10.4134 13.2947 13.3842 10.3387 17.0362 10.3387C20.6976 10.34 23.6563 13.292 23.6549 16.9333C23.6529 20.5673 20.6801 23.5233 17.0308 23.5233Z" fill="white"/>
</svg>
